# xmcd
#
# Track frame offsets: 
#        150
#        2464
#        16709
#        27571
#        39091
#        48118
#        61473
#        76634
#        92939
#        106424
#        120562
#        135944
#        147124
#        160541
#        171802
#        188026
#        201737
#        212483
#        227701
#        243478
#        263536
#        279753
#        297973
#        312444
#
# Disc length: 4448 seconds
#
# Revision: 1
# Processed by: cddbd v1.5.2PL0 Copyright (c) Steve Scherf et al.
# Submitted via: ExactAudioCopyFreeDBPlugin 1.0
#
DISCID=33115e18
DTITLE=Various Artist - 30 Jahre Kölsche Weihnacht CD 1
DYEAR=2013
DGENRE=Christmas
TTITLE0=Jassemusikante - Kumm, los m'r widder singe
TTITLE1=Bläck Fööss - Vür'm Hus do blös d'r wind
TTITLE2=Lucky Kits - Bitte, bitte lever Jott
TTITLE3=Hans Knipp Paveier - Et Noßknackerlied
TTITLE4=Werner-Fluß - Chreßdaachsleeder
TTITLE5=Paveier - Leechterkette üvverall
TTITLE6=Kinderchor Paveier - Kumm joot heim leeve Klös
TTITLE7=Tino Selbach - En Bethlehem wood hä jeboore
TTITLE8=Willy Milowitsch - Zinter Mätes joode Mann
TTITLE9=Wanderer - Op den Weihnachtsmaar en Kölle
TTITLE10=M. Kampmann - Wenn du ohne Liebe bes
TTITLE11=Bläck Fööss - Hilije Mann
TTITLE12=Karl Heinz Jansen - Broder Bätes
TTITLE13=Rhinestone Cowboys - Dä Kalender
TTITLE14=Wicky Junggeburth - Wir warten auf's Christkind
TTITLE15=Renate Fuchs - Jevv dem Päädsche jet Hafer
TTITLE16=Paveier - D'r Winter ist jekumme
TTITLE17=Josef Meinertzhagen - Et jitt kein lesblömcher mih
TTITLE18=Bläck Fööss - Alles hät sing Zick
TTITLE19=Klüngelköpp - Wenn am Himmel de Flocke danze
TTITLE20=Köster and Hocker - Weihnachtsmann
TTITLE21=Hoot u. Höötsche - Mer kummen us dem Morjenland
TTITLE22=Bläck Fööss - Leeve Klös
TTITLE23=Die 3 Colonias - Da Katespill
EXTD=YEAR: 2013
EXTT0=
EXTT1=
EXTT2=
EXTT3=
EXTT4=
EXTT5=
EXTT6=
EXTT7=
EXTT8=
EXTT9=
EXTT10=
EXTT11=
EXTT12=
EXTT13=
EXTT14=
EXTT15=
EXTT16=
EXTT17=
EXTT18=
EXTT19=
EXTT20=
EXTT21=
EXTT22=
EXTT23=
PLAYORDER=
